<?xml version="1.0" standalone="no"?>
<!DOCTYPE svg PUBLIC "-//W3C//DTD SVG 20010904//EN"
 "http://www.w3.org/TR/2001/REC-SVG-20010904/DTD/svg10.dtd">
<svg version="1.0" xmlns="http://www.w3.org/2000/svg"
 width="512.000000pt" height="512.000000pt" viewBox="0 0 512.000000 512.000000"
 preserveAspectRatio="xMidYMid meet">

<g transform="translate(0.000000,512.000000) scale(0.100000,-0.100000)"
fill="#000000" stroke="none">
<path d="M1810 4689 c0 -5 5 -7 10 -4 6 3 10 8 10 11 0 2 -4 4 -10 4 -5 0 -10
-5 -10 -11z"/>
<path d="M1273 4513 c-15 -5 -18 -33 -4 -33 8 0 25 30 19 35 -2 1 -9 0 -15 -2z"/>
<path d="M4394 4164 c-7 -3 -9 -17 -5 -37 5 -23 13 -33 29 -35 12 -2 22 1 22
7 0 6 -7 11 -16 11 -13 0 -14 3 -4 15 7 8 10 22 6 30 -5 15 -12 17 -32 9z"/>
<path d="M4380 4070 c0 -5 5 -10 11 -10 5 0 7 5 4 10 -3 6 -8 10 -11 10 -2 0
-4 -4 -4 -10z"/>
<path d="M4670 4030 c0 -6 -7 -10 -15 -10 -16 0 -20 -16 -6 -24 12 -8 72 17
68 28 -4 13 -47 18 -47 6z"/>
<path d="M4420 3972 c0 -5 -11 -7 -25 -4 -20 3 -25 0 -25 -17 0 -14 6 -21 19
-21 16 0 17 -5 11 -39 -5 -30 -4 -41 6 -45 8 -3 14 -1 14 5 0 6 6 9 14 6 8 -3
16 -1 18 4 2 7 12 7 28 0 14 -5 19 -10 11 -10 -8 -1 -11 -7 -7 -17 4 -10 1
-14 -6 -11 -16 5 -68 -20 -68 -33 0 -14 24 -12 38 2 10 10 17 10 33 0 14 -9
19 -9 14 -2 -4 7 1 7 14 -2 20 -12 25 -10 50 21 l28 34 -27 27 c-15 15 -35 30
-44 33 -9 4 -21 17 -27 31 -6 13 -19 27 -28 30 -9 3 -22 9 -28 12 -7 3 -13 1
-13 -4z"/>
<path d="M4702 3914 c-11 -12 -9 -14 8 -14 11 0 20 4 20 9 0 17 -15 19 -28 5z"/>
<path d="M4330 3851 c0 -14 5 -19 15 -14 17 6 15 25 -3 31 -7 2 -12 -5 -12
-17z"/>
<path d="M792 3765 c1 -19 3 -35 5 -35 1 0 12 9 23 20 17 17 18 21 4 35 -24
24 -34 18 -32 -20z"/>
<path d="M646 3760 c19 -19 24 -20 43 -9 25 16 27 29 5 29 -9 0 -12 -5 -8 -12
5 -8 2 -9 -9 -5 -51 21 -53 21 -31 -3z"/>
<path d="M565 3700 c3 -5 11 -10 16 -10 6 0 7 5 4 10 -3 6 -11 10 -16 10 -6 0
-7 -4 -4 -10z"/>
<path d="M396 3465 c-6 -16 3 -19 28 -9 22 8 20 24 -3 24 -10 0 -21 -7 -25
-15z"/>
<path d="M4545 3459 c-4 -6 -5 -13 -2 -16 7 -7 27 6 27 18 0 12 -17 12 -25 -2z"/>
<path d="M723 3403 c-15 -5 -17 -33 -3 -33 6 0 10 4 10 9 0 5 8 11 18 13 14 3
14 5 2 9 -8 3 -21 4 -27 2z"/>
<path d="M0 3305 c0 -26 4 -33 14 -29 29 11 29 64 0 64 -9 0 -14 -12 -14 -35z"/>
<path d="M4630 3297 c0 -27 13 -36 26 -16 3 6 -1 18 -10 27 -15 15 -16 14 -16
-11z"/>
<path d="M114 2955 c-8 -33 -4 -37 26 -22 35 18 39 47 6 47 -19 0 -27 -6 -32
-25z"/>
<path d="M330 2850 c0 -5 5 -10 10 -10 6 0 10 5 10 10 0 6 -4 10 -10 10 -5 0
-10 -4 -10 -10z"/>
<path d="M470 2668 c0 -9 -8 -22 -17 -27 -10 -6 -12 -11 -5 -11 18 0 15 -20
-4 -20 -12 0 -14 -5 -9 -17 4 -10 7 -26 7 -36 -1 -13 3 -16 11 -9 7 5 29 8 50
6 27 -2 37 1 37 11 0 12 -15 28 -30 31 -3 0 -14 4 -24 9 -17 7 -17 10 -3 19
13 10 13 15 1 36 -10 18 -13 20 -14 8z"/>
<path d="M506 2665 c-7 -20 9 -28 23 -11 9 10 8 15 -3 19 -8 3 -17 -1 -20 -8z"/>
<path d="M246 2545 c-9 -24 -7 -45 3 -45 5 0 13 9 16 21 8 26 -9 48 -19 24z"/>
<path d="M214 2472 c-10 -12 -24 -18 -37 -14 -14 3 -18 1 -13 -6 4 -7 18 -12
31 -12 20 0 25 -7 31 -34 5 -31 8 -34 24 -24 14 9 25 9 45 0 25 -11 25 -11 13
10 -7 11 -22 37 -33 56 -25 44 -39 49 -61 24z"/>
<path d="M410 2335 c14 -17 30 -20 30 -4 0 5 -4 7 -10 4 -5 -3 -10 -1 -10 4 0
6 -5 11 -11 11 -8 0 -8 -5 1 -15z"/>
<path d="M230 2310 c0 -5 5 -10 10 -10 6 0 10 5 10 10 0 6 -4 10 -10 10 -5 0
-10 -4 -10 -10z"/>
<path d="M412 2292 c4 -23 25 -26 36 -5 8 15 6 18 -15 19 -17 2 -23 -3 -21
-14z"/>
<path d="M303 2293 c-7 -2 -13 -18 -13 -34 0 -18 -5 -29 -13 -29 -9 0 -14 -13
-15 -35 -1 -22 3 -33 9 -30 6 4 7 -5 4 -26 -4 -24 -1 -37 16 -55 12 -13 25
-21 29 -19 3 2 6 -6 6 -18 -1 -17 5 -22 24 -22 19 0 27 7 35 30 6 17 21 41 34
54 17 17 20 26 12 34 -8 8 -15 6 -26 -9 -16 -21 -14 -24 -19 39 -1 6 -5 15
-11 19 -5 4 -9 20 -7 35 2 18 -5 36 -18 51 -21 23 -26 24 -47 15z m37 -84 c-7
-11 -14 -18 -17 -15 -8 8 5 36 17 36 7 0 7 -6 0 -21z"/>
<path d="M430 2245 c0 -8 5 -15 10 -15 6 0 10 7 10 15 0 8 -4 15 -10 15 -5 0
-10 -7 -10 -15z"/>
<path d="M500 2203 c0 -21 0 -56 1 -78 0 -22 5 -44 11 -50 7 -7 9 2 4 31 -4
28 -1 51 8 70 11 19 12 33 5 46 -16 30 -30 21 -29 -19z"/>
<path d="M575 2110 c-3 -5 -1 -10 4 -10 6 0 11 5 11 10 0 6 -2 10 -4 10 -3 0
-8 -4 -11 -10z"/>
<path d="M470 2079 c0 -5 5 -7 10 -4 6 3 10 8 10 11 0 2 -4 4 -10 4 -5 0 -10
-5 -10 -11z"/>
<path d="M570 1813 c0 -5 5 -15 10 -23 8 -12 10 -11 10 8 0 12 -4 22 -10 22
-5 0 -10 -3 -10 -7z"/>
<path d="M4890 1033 c0 -5 5 -15 10 -23 8 -12 10 -11 10 8 0 12 -4 22 -10 22
-5 0 -10 -3 -10 -7z"/>
<path d="M815 840 c-3 -5 -1 -10 4 -10 6 0 11 5 11 10 0 6 -2 10 -4 10 -3 0
-8 -4 -11 -10z"/>
<path d="M991 714 c0 -11 3 -14 6 -6 3 7 2 16 -1 19 -3 4 -6 -2 -5 -13z"/>
<path d="M2230 610 c0 -5 7 -7 15 -4 8 4 15 8 15 10 0 2 -7 4 -15 4 -8 0 -15
-4 -15 -10z"/>
<path d="M4085 590 c-3 -5 3 -10 14 -10 12 0 21 5 21 10 0 6 -6 10 -14 10 -8
0 -18 -4 -21 -10z"/>
<path d="M3270 559 c0 -5 5 -7 10 -4 6 3 10 8 10 11 0 2 -4 4 -10 4 -5 0 -10
-5 -10 -11z"/>
<path d="M1762 530 c0 -14 2 -19 5 -12 2 6 2 18 0 25 -3 6 -5 1 -5 -13z"/>
<path d="M2980 532 c0 -5 12 -14 28 -21 l27 -13 -22 21 c-24 23 -33 26 -33 13z"/>
<path d="M1285 510 c-3 -5 -1 -10 4 -10 6 0 11 5 11 10 0 6 -2 10 -4 10 -3 0
-8 -4 -11 -10z"/>
<path d="M2326 498 c3 -16 0 -35 -11 -51 -14 -23 -14 -25 1 -31 11 -4 14 -13
10 -30 -4 -15 -1 -26 7 -29 7 -3 5 -6 -5 -6 -23 -1 -23 -13 0 -27 35 -22 75
36 54 80 -6 11 -13 33 -16 47 -3 15 -15 37 -26 50 l-20 24 6 -27z"/>
<path d="M2830 506 c0 -9 30 -14 35 -6 4 6 -3 10 -14 10 -12 0 -21 -2 -21 -4z"/>
<path d="M3290 489 c0 -18 2 -19 15 -9 8 7 15 16 15 21 0 5 -7 9 -15 9 -9 0
-15 -9 -15 -21z"/>
<path d="M3192 462 c0 -22 -3 -45 -6 -51 -5 -7 -1 -9 9 -5 18 7 30 48 19 65
-5 8 -3 9 6 4 8 -5 11 -3 8 6 -3 8 -12 15 -21 17 -12 3 -16 -5 -15 -36z"/>
<path d="M2500 479 c0 -5 5 -7 10 -4 6 3 10 8 10 11 0 2 -4 4 -10 4 -5 0 -10
-5 -10 -11z"/>
<path d="M1784 469 c-8 -13 32 -56 42 -46 9 9 -12 57 -25 57 -5 0 -13 -5 -17
-11z"/>
<path d="M2473 409 c-20 -40 -27 -73 -24 -107 2 -25 21 -1 21 26 0 15 7 38 16
50 8 12 14 34 12 49 -3 25 -4 24 -25 -18z"/>
<path d="M3384 413 c11 -13 15 -23 11 -23 -5 0 2 -11 15 -26 25 -25 23 -31
-15 -48 -6 -3 -3 -9 5 -15 20 -14 54 27 39 46 -6 6 -9 17 -8 25 3 28 -2 38
-19 38 -10 0 -24 6 -32 13 -8 6 -6 2 4 -10z"/>
<path d="M1878 398 c-18 -34 -19 -51 -1 -70 10 -12 24 -16 39 -12 16 4 24 2
24 -6 0 -9 4 -10 13 -2 7 6 23 9 35 5 28 -7 29 8 1 25 -11 7 -19 21 -17 31 8
48 -70 72 -94 29z"/>
<path d="M1094 375 c-12 -8 -24 -11 -28 -8 -3 3 -6 -4 -6 -16 0 -18 -4 -21
-20 -16 -11 3 -20 3 -20 -2 0 -9 58 -63 67 -63 12 0 34 32 30 43 -3 7 1 21 9
32 29 40 9 59 -32 30z"/>
<path d="M2965 380 c-3 -5 -3 -21 1 -35 6 -26 6 -26 21 -5 15 21 12 50 -6 50
-5 0 -12 -4 -16 -10z"/>
<path d="M1210 359 c0 -11 5 -17 10 -14 6 3 10 13 10 21 0 8 -4 14 -10 14 -5
0 -10 -9 -10 -21z"/>
<path d="M3176 361 c-17 -19 -17 -20 4 -31 12 -7 19 -18 16 -26 -3 -8 -2 -14
3 -14 16 0 19 13 8 32 -10 16 -9 21 7 30 15 8 16 12 5 19 -20 12 -24 11 -43
-10z"/>
<path d="M2099 365 c-7 0 -6 -135 1 -140 6 -4 10 6 11 22 2 68 6 86 22 98 24
17 21 23 -8 21 -14 0 -25 -1 -26 -1z"/>
<path d="M740 326 c0 -9 5 -16 10 -16 6 0 10 4 10 9 0 6 -4 13 -10 16 -5 3
-10 -1 -10 -9z"/>
<path d="M4180 301 c0 -12 5 -21 10 -21 6 0 10 6 10 14 0 8 -4 18 -10 21 -5 3
-10 -3 -10 -14z"/>
<path d="M1900 270 c0 -5 5 -10 10 -10 6 0 10 5 10 10 0 6 -4 10 -10 10 -5 0
-10 -4 -10 -10z"/>
<path d="M773 264 c-7 -3 -9 -12 -6 -19 4 -12 7 -12 19 0 23 22 17 31 -13 19z"/>
<path d="M2242 245 c-17 -37 -14 -45 4 -12 9 16 14 31 11 33 -2 2 -9 -7 -15
-21z"/>
<path d="M1530 250 c0 -5 5 -10 10 -10 6 0 10 5 10 10 0 6 -4 10 -10 10 -5 0
-10 -4 -10 -10z"/>
<path d="M3402 238 c-16 -16 -15 -38 2 -38 18 0 39 27 31 40 -8 13 -18 13 -33
-2z"/>
<path d="M1687 227 c-3 -9 1 -21 9 -27 11 -10 14 -10 14 1 0 8 -4 20 -9 27 -7
11 -9 11 -14 -1z"/>
<path d="M1940 232 c0 -12 19 -26 26 -19 2 2 -2 10 -11 17 -9 8 -15 8 -15 2z"/>
<path d="M2950 225 c0 -8 5 -15 10 -15 6 0 10 7 10 15 0 8 -4 15 -10 15 -5 0
-10 -7 -10 -15z"/>
<path d="M1915 190 c4 -19 3 -30 -4 -30 -6 0 -11 -11 -11 -24 0 -13 -6 -26
-12 -29 -20 -7 22 -48 46 -45 14 2 23 14 29 38 4 19 11 45 14 58 4 18 1 22
-17 22 -13 0 -24 8 -27 20 -9 32 -25 23 -18 -10z"/>
<path d="M3257 213 c-4 -3 -4 -17 -1 -29 4 -15 2 -24 -6 -24 -7 0 -4 -7 6 -17
13 -13 19 -14 22 -5 2 7 9 9 15 5 7 -3 4 3 -7 15 -10 12 -16 28 -13 36 6 16
-6 30 -16 19z"/>
<path d="M2082 184 c4 -21 22 -23 26 -1 2 10 -3 17 -13 17 -10 0 -15 -6 -13
-16z"/>
<path d="M2220 184 c0 -8 5 -12 10 -9 6 3 10 10 10 16 0 5 -4 9 -10 9 -5 0
-10 -7 -10 -16z"/>
<path d="M3310 166 c0 -8 4 -17 9 -20 5 -4 7 3 4 14 -6 23 -13 26 -13 6z"/>
<path d="M3380 164 c0 -8 5 -12 10 -9 6 3 10 10 10 16 0 5 -4 9 -10 9 -5 0
-10 -7 -10 -16z"/>
<path d="M2955 150 c3 -5 8 -10 11 -10 2 0 4 5 4 10 0 6 -5 10 -11 10 -5 0 -7
-4 -4 -10z"/>
<path d="M1774 129 c-8 -13 -5 -16 30 -25 21 -5 28 -4 24 6 -6 18 -46 32 -54
19z"/>
<path d="M4152 131 c2 -7 7 -12 11 -12 12 1 9 15 -3 20 -7 2 -11 -2 -8 -8z"/>
<path d="M3207 123 c-4 -3 -7 -20 -7 -37 1 -29 1 -30 15 -12 24 31 16 74 -8
49z"/>
<path d="M3336 87 c3 -10 9 -15 12 -12 3 3 0 11 -7 18 -10 9 -11 8 -5 -6z"/>
<path d="M1763 77 c-7 -12 -2 -15 37 -19 25 -2 36 1 38 12 2 11 -7 15 -34 15
-20 0 -38 -4 -41 -8z"/>
<path d="M3265 80 c3 -5 10 -10 16 -10 5 0 9 5 9 10 0 6 -7 10 -16 10 -8 0
-12 -4 -9 -10z"/>
<path d="M2026 61 c-16 -24 27 -61 70 -61 20 0 18 40 -3 56 -21 15 -59 18 -67
5z"/>
<path d="M1646 25 c-9 -26 -7 -32 5 -12 6 10 9 21 6 23 -2 3 -7 -2 -11 -11z"/>
<path d="M2280 30 c-8 -5 -25 -10 -37 -10 -13 0 -23 -4 -23 -10 0 -15 62 -12
83 4 9 7 17 16 17 20 0 9 -23 7 -40 -4z"/>
<path d="M3322 20 c0 -14 2 -19 5 -12 2 6 2 18 0 25 -3 6 -5 1 -5 -13z"/>
</g>
</svg>
